<svg id="svg" xmlns="http://www.w3.org/2000/svg" xmlns:xlink="http://www.w3.org/1999/xlink" width="400" height="400" viewBox="0, 0, 400,400"><g id="svgg"><path id="path0" d="M307.000 104.053 C 302.600 104.941,296.525 106.620,293.501 107.784 C 290.476 108.948,285.526 109.408,282.501 108.806 C 262.555 104.837,182.908 132.237,141.330 157.370 C 31.456 223.788,23.198 281.144,122.885 285.481 L 146.770 286.520 156.360 297.013 C 187.221 330.780,245.776 329.957,309.298 294.863 C 384.318 253.416,370.583 214.016,281.109 214.003 L 263.219 214.000 293.344 193.655 C 324.633 172.523,329.023 168.373,326.960 161.875 C 323.492 150.948,287.551 164.159,219.000 201.561 C 205.800 208.763,189.150 217.656,182.000 221.325 L 169.000 227.994 184.098 213.344 C 200.402 197.524,232.213 175.787,286.024 143.695 C 331.060 116.837,338.566 109.158,324.870 103.950 C 319.135 101.770,318.287 101.775,307.000 104.053 M320.000 110.935 C 320.000 111.449,311.225 116.991,300.500 123.250 C 214.131 173.658,179.303 198.582,160.871 223.170 C 155.191 230.747,147.816 237.981,143.500 240.209 C 135.272 244.457,133.694 250.051,139.500 254.387 C 141.812 256.113,143.059 259.886,143.173 265.500 L 143.345 274.000 134.173 273.938 C 96.429 273.684,66.000 262.428,66.000 248.721 C 66.000 223.017,145.921 160.811,206.500 139.365 C 213.751 136.798,209.583 140.155,198.500 145.809 C 181.672 154.394,179.272 156.554,180.890 161.652 C 183.037 168.418,188.322 167.086,216.727 152.615 C 265.544 127.746,278.688 121.698,294.869 116.660 C 303.741 113.897,311.900 111.340,313.000 110.976 C 316.157 109.934,320.000 109.911,320.000 110.935 M280.900 185.672 C 260.823 203.344,225.410 222.073,212.227 221.993 C 210.280 221.981,222.897 214.594,251.973 198.723 C 276.333 185.426,286.277 180.939,280.900 185.672 M315.133 230.178 C 349.877 236.554,356.057 247.667,334.676 265.322 C 276.161 313.641,203.700 325.955,167.082 293.804 L 159.346 287.012 167.173 285.587 C 183.524 282.611,242.787 281.374,256.283 283.726 C 271.697 286.413,276.000 285.366,276.000 278.928 C 276.000 271.972,260.035 269.166,222.000 269.436 L 191.000 269.656 203.065 258.328 C 222.538 240.043,235.329 232.226,249.038 230.230 C 266.471 227.691,301.433 227.664,315.133 230.178 M203.483 244.908 C 196.603 251.993,193.579 256.868,190.091 266.500 C 188.193 271.739,187.433 272.016,174.050 272.333 C 166.322 272.517,158.425 272.742,156.500 272.833 C 152.663 273.016,150.457 259.282,153.564 254.553 C 154.985 252.389,200.917 238.417,207.596 238.117 C 209.024 238.053,207.173 241.109,203.483 244.908 " stroke="none" fill="#000000" fill-rule="evenodd"></path></g></svg>