<?xml version="1.0" standalone="no"?>
<!DOCTYPE svg PUBLIC "-//W3C//DTD SVG 20010904//EN"
 "http://www.w3.org/TR/2001/REC-SVG-20010904/DTD/svg10.dtd">
<svg version="1.0" xmlns="http://www.w3.org/2000/svg"
 width="768.000000pt" height="768.000000pt" viewBox="0 0 768.000000 768.000000"
 preserveAspectRatio="xMidYMid meet">
<metadata>
Created by potrace 1.14, written by Peter Selinger 2001-2017
</metadata>
<g transform="translate(0.000000,768.000000) scale(0.100000,-0.100000)"
fill="#000000" stroke="none">
<path d="M5185 7431 c-33 -14 -88 -29 -127 -36 -21 -3 -38 -10 -38 -15 0 -6 4
-10 10 -10 16 0 -11 -49 -30 -55 -10 -3 -31 -17 -46 -31 -16 -13 -33 -28 -39
-32 -5 -5 -23 -26 -40 -47 -16 -21 -47 -54 -67 -73 -21 -19 -38 -40 -38 -45 0
-5 -18 -25 -40 -44 -22 -20 -40 -41 -40 -48 0 -8 -16 -30 -35 -51 -19 -20 -35
-41 -35 -46 0 -5 -4 -7 -9 -3 -5 3 -13 -5 -17 -17 -7 -23 -34 -55 -34 -41 0 4
-8 -7 -16 -24 -9 -18 -20 -30 -24 -28 -5 3 -11 1 -15 -5 -3 -5 -1 -10 5 -10 6
0 8 -5 5 -10 -4 -6 -11 -7 -17 -4 -6 4 -9 3 -5 -2 3 -5 -2 -18 -10 -29 -13
-16 -15 -17 -10 -2 4 9 2 17 -3 17 -6 0 -10 -7 -10 -15 0 -8 -5 -15 -11 -15
-15 0 -85 -62 -82 -72 2 -4 -2 -8 -8 -8 -7 0 -27 -16 -46 -35 -19 -19 -41 -35
-49 -35 -8 0 -13 -4 -10 -9 8 -13 -20 -22 -98 -31 -45 -5 -74 -14 -82 -24 -6
-9 -25 -16 -41 -16 -16 0 -33 -3 -36 -7 -4 -3 -20 -8 -36 -9 -68 -8 -103 -36
-61 -49 24 -8 28 -56 6 -74 -8 -7 -17 -24 -21 -39 -3 -15 -24 -70 -47 -122
-57 -136 -56 -132 -61 -165 -12 -69 -21 -79 -93 -102 -38 -12 -107 -32 -154
-44 -75 -20 -122 -38 -182 -70 -10 -5 -24 -9 -32 -9 -8 0 -16 -7 -20 -15 -3
-9 -18 -15 -35 -15 -20 0 -34 -7 -41 -20 -13 -24 -47 -26 -118 -5 -66 20 -309
74 -387 86 -33 5 -67 11 -75 14 -23 7 -190 37 -229 41 -53 5 -60 19 -61 114
-2 147 9 331 19 344 6 7 8 16 4 19 -3 4 -1 7 5 7 12 0 27 37 23 61 -3 25 35
133 79 224 21 44 42 93 46 108 4 17 16 32 31 38 13 5 22 13 19 18 -3 5 1 14 9
21 8 7 15 21 15 31 0 11 9 28 19 38 10 10 22 28 26 40 3 12 17 27 30 34 13 6
24 16 23 20 -1 16 43 67 57 67 9 0 15 9 15 21 0 12 8 23 19 26 14 4 21 15 23
41 2 26 10 40 25 48 13 6 20 14 17 17 -4 4 1 9 10 13 9 3 16 13 16 21 0 12 -9
14 -47 9 -27 -4 -61 -11 -78 -16 -16 -5 -86 -11 -155 -13 -69 -3 -138 -7 -155
-10 -16 -3 -66 -10 -110 -16 -100 -13 -126 -21 -119 -33 4 -6 -2 -7 -17 -3
-13 4 -21 4 -16 -1 8 -8 -45 -34 -70 -34 -8 0 -35 -9 -61 -21 -26 -11 -58 -25
-72 -30 -14 -6 -43 -20 -65 -31 -22 -11 -62 -32 -90 -46 -74 -36 -107 -62
-101 -79 3 -8 1 -11 -4 -8 -6 3 -10 0 -11 -7 -1 -7 -2 -28 -4 -47 -2 -18 -8
-37 -15 -41 -7 -4 -10 -12 -6 -18 3 -6 2 -13 -3 -16 -5 -4 -12 -24 -16 -46 -4
-22 -11 -42 -16 -46 -5 -3 -9 -15 -9 -26 0 -26 -36 -106 -61 -133 -10 -11 -18
-29 -17 -40 0 -11 -8 -46 -19 -77 -16 -47 -18 -59 -7 -70 9 -9 13 -43 13 -103
0 -49 0 -108 1 -130 5 -232 -3 -307 -34 -313 -26 -5 -43 14 -65 73 -11 29 -31
77 -45 106 -15 29 -26 58 -26 65 0 6 -7 17 -16 24 -11 10 -14 24 -10 49 3 20
9 63 12 96 7 66 17 85 45 85 29 0 23 29 -8 41 -16 6 -60 25 -98 44 -96 46
-122 52 -127 28 -2 -10 3 -43 10 -73 7 -30 17 -71 22 -90 20 -80 54 -188 76
-238 13 -29 24 -58 24 -65 0 -7 14 -34 30 -62 16 -27 30 -60 30 -73 0 -33 -43
-72 -80 -72 -34 0 -37 -9 -12 -39 11 -14 35 -24 69 -30 31 -5 66 -19 87 -34
33 -25 35 -30 33 -80 -3 -69 37 -157 125 -279 26 -37 48 -73 48 -79 0 -6 13
-28 30 -49 16 -21 30 -41 30 -44 0 -5 47 -71 83 -116 56 -69 62 -85 62 -152 0
-38 -3 -68 -7 -68 -5 0 -8 -13 -8 -30 0 -16 -7 -33 -15 -38 -21 -11 -9 -41 22
-53 21 -8 24 -15 21 -46 -4 -50 -24 -53 -82 -12 -40 28 -86 95 -86 123 0 4 -6
22 -14 39 -7 18 -19 57 -26 87 -20 92 -31 115 -64 135 -17 10 -37 20 -45 21
-8 1 -17 7 -20 13 -11 18 -121 30 -294 33 -153 3 -167 2 -167 -14 0 -10 11
-25 25 -34 29 -19 31 -40 9 -113 -10 -33 -16 -93 -16 -157 0 -63 -4 -104 -10
-104 -6 0 -5 -7 2 -15 7 -8 9 -15 5 -15 -5 0 0 -9 10 -20 10 -11 14 -20 10
-20 -4 0 0 -9 10 -20 10 -11 14 -20 10 -20 -4 0 -1 -8 7 -17 8 -10 30 -45 47
-78 18 -33 39 -67 47 -76 8 -8 14 -22 14 -30 0 -8 18 -44 39 -81 22 -37 56
-102 77 -145 20 -43 54 -101 76 -130 21 -29 38 -56 38 -61 0 -5 13 -26 30 -48
16 -21 30 -44 30 -49 0 -6 16 -26 35 -45 19 -19 35 -41 35 -48 0 -7 6 -21 12
-32 11 -18 9 -23 -17 -45 -42 -36 -155 -112 -185 -124 -29 -13 -39 -18 -146
-88 -45 -29 -86 -53 -92 -53 -6 0 -20 -10 -32 -22 -11 -12 -20 -18 -20 -14 0
9 -69 -54 -152 -139 -44 -44 -68 -78 -68 -92 0 -21 5 -23 58 -24 31 -1 61 -1
65 0 5 1 35 -4 68 -11 55 -11 61 -15 75 -48 9 -19 20 -43 25 -53 6 -10 7 -27
4 -37 -3 -10 2 -60 11 -112 10 -51 18 -104 18 -118 1 -14 5 -30 9 -37 4 -6 4
-18 1 -27 -3 -9 -1 -23 6 -31 7 -8 10 -24 7 -35 -3 -11 -1 -20 4 -20 5 0 7
-11 3 -25 -6 -23 -4 -25 29 -25 31 0 36 4 42 29 3 16 12 35 20 41 7 6 11 18 9
28 -4 16 64 110 83 115 4 1 7 4 6 7 0 3 5 11 13 18 8 7 14 10 14 7 0 -3 6 0
14 7 9 8 11 17 5 24 -11 14 10 29 95 69 l58 27 24 -24 c20 -20 26 -38 31 -95
7 -85 0 -120 -27 -128 -15 -5 -18 -12 -14 -38 4 -23 3 -28 -4 -18 -7 10 -12
-5 -17 -55 -4 -38 -9 -78 -11 -89 -4 -16 -3 -17 5 -5 8 11 11 2 11 -38 0 -33
-4 -51 -10 -47 -5 3 -10 1 -10 -4 0 -6 5 -11 10 -11 6 0 10 -7 10 -16 0 -8 -5
-12 -11 -8 -8 4 -9 -1 -4 -17 4 -13 12 -27 18 -31 6 -3 10 -21 9 -39 -1 -24 2
-29 8 -19 8 12 10 12 10 -4 0 -17 2 -17 22 -4 13 9 24 25 24 37 1 25 19 46 37
46 7 0 46 -36 87 -79 41 -44 83 -88 93 -98 9 -10 17 -22 17 -28 0 -5 5 -10 12
-10 6 0 8 -3 5 -7 -4 -3 2 -12 12 -20 30 -20 156 -184 153 -197 -2 -6 -1 -8 3
-4 8 7 35 -15 35 -28 0 -3 9 -15 21 -25 11 -9 21 -21 22 -26 1 -4 5 -7 9 -6 5
2 8 -6 8 -18 0 -11 5 -17 10 -14 6 3 10 3 10 -2 1 -4 21 -30 45 -57 24 -27 42
-53 39 -58 -3 -5 0 -7 7 -6 7 2 13 -2 14 -9 0 -7 9 -19 20 -27 11 -8 20 -20
20 -28 0 -7 7 -13 15 -13 8 0 15 -6 15 -13 0 -7 6 -17 14 -22 16 -9 23 -38 13
-54 -3 -6 -5 -20 -4 -32 4 -27 -26 -54 -38 -35 -6 11 -9 11 -13 0 -4 -9 -8
-10 -14 -4 -4 6 -30 11 -58 13 -34 2 -45 0 -36 -7 11 -7 1 -11 -35 -17 -27 -4
-51 -7 -54 -6 -13 2 -20 -30 -10 -47 12 -24 13 -34 1 -27 -5 3 -22 -1 -38 -9
-16 -8 -44 -16 -63 -19 -19 -3 -59 -12 -88 -21 -29 -9 -57 -13 -62 -10 -6 3
-10 1 -10 -5 0 -7 -7 -10 -15 -7 -8 4 -17 2 -20 -3 -3 -5 -12 -7 -20 -4 -8 4
-18 -1 -21 -10 -4 -10 -13 -14 -23 -11 -23 7 -61 -27 -61 -54 0 -12 -4 -20 -8
-17 -4 2 -9 -14 -9 -37 -1 -23 -11 -53 -23 -69 -14 -19 -19 -36 -14 -55 4 -19
3 -24 -4 -15 -7 11 -10 11 -15 -2 -5 -11 -18 -16 -39 -15 -18 0 -47 -4 -65 -9
-17 -6 -34 -8 -37 -4 -3 3 -6 0 -6 -7 0 -8 -7 -11 -15 -7 -9 3 -15 0 -15 -8 0
-7 -16 -28 -37 -45 -20 -17 -32 -31 -27 -31 5 0 1 -7 -9 -14 -10 -8 -18 -17
-18 -20 3 -20 0 -26 -9 -21 -6 4 -7 -1 -3 -11 4 -12 3 -15 -5 -10 -8 5 -10 2
-6 -8 4 -9 1 -16 -6 -16 -6 0 -10 -6 -8 -12 3 -7 -1 -19 -9 -26 -8 -8 -11 -23
-7 -39 5 -17 3 -24 -3 -20 -6 4 -14 0 -17 -9 -9 -24 -7 -31 4 -14 7 11 10 12
10 2 0 -7 -7 -21 -16 -29 -9 -9 -14 -26 -11 -40 2 -12 0 -23 -5 -23 -6 0 -8
-7 -4 -15 3 -8 1 -15 -5 -15 -6 0 -8 -9 -4 -20 4 -11 2 -20 -4 -20 -6 0 -7 -7
-4 -17 5 -12 3 -14 -7 -8 -9 5 -11 4 -6 -4 10 -16 -12 -41 -35 -41 -11 0 -19
-4 -19 -9 0 -5 -19 -28 -43 -53 -37 -37 -43 -49 -43 -83 l1 -39 81 3 c45 1 90
-2 100 -7 11 -5 30 -15 44 -21 14 -6 39 -20 56 -31 48 -31 126 -29 199 5 45
21 73 27 110 25 28 -1 59 -2 70 -3 38 -2 218 14 228 20 5 3 28 5 50 5 23 -1
58 4 78 10 27 8 46 7 75 -2 43 -15 480 -15 518 -1 11 5 105 4 209 -1 111 -5
235 -5 305 0 68 5 201 5 317 0 110 -5 333 -8 495 -7 358 2 595 2 880 -1 118
-1 338 -2 488 -1 l273 1 0 73 c1 39 2 104 3 144 l3 72 69 74 c56 59 226 306
243 351 11 32 24 57 56 111 19 33 47 85 60 115 14 30 30 64 36 76 6 11 11 36
12 54 2 30 -1 33 -48 47 -96 29 -160 55 -177 70 -15 13 -22 13 -68 -2 -41 -14
-57 -15 -74 -6 -22 12 -55 18 -113 20 -18 0 -41 9 -51 19 -14 14 -35 17 -112
17 -80 0 -94 2 -90 15 2 8 7 57 10 109 5 94 5 95 33 102 57 15 188 141 254
244 80 125 231 294 337 377 50 40 93 75 96 78 3 4 20 15 38 24 48 25 41 44
-30 75 -25 12 -51 28 -58 36 -7 8 -30 20 -51 25 -30 8 -40 17 -46 38 -3 15
-19 48 -35 75 -34 58 -35 82 -4 102 23 16 196 64 316 89 36 8 79 19 95 26 17
7 46 15 65 17 19 2 62 8 95 13 81 13 237 12 332 -1 58 -9 85 -18 104 -35 28
-27 40 -29 56 -13 9 9 6 21 -11 48 -13 20 -25 41 -27 48 -2 7 -74 77 -159 156
-85 78 -186 176 -225 217 -38 40 -86 90 -106 110 -48 48 -52 64 -29 103 11 17
25 43 32 57 7 14 27 47 45 74 23 34 33 60 33 87 0 21 5 41 10 44 6 3 10 38 10
76 0 44 -4 68 -10 64 -21 -13 -27 7 -13 46 23 67 83 312 78 317 -3 3 0 10 5
17 5 6 12 45 16 86 3 41 10 88 14 104 5 17 11 71 15 120 3 50 8 105 12 123 4
28 2 32 -16 32 -11 0 -44 -10 -73 -21 -29 -12 -89 -32 -133 -44 -44 -13 -136
-46 -204 -74 -68 -28 -128 -51 -133 -51 -5 0 -29 -13 -53 -30 -24 -16 -48 -30
-53 -30 -5 0 -15 -7 -22 -15 -7 -8 -16 -15 -21 -15 -18 0 -8 24 25 65 19 23
54 78 76 121 23 43 48 86 56 95 8 8 14 19 14 23 0 3 19 39 41 79 48 83 119
222 119 233 0 4 11 22 25 39 13 18 32 52 41 76 9 24 20 53 25 64 5 11 24 67
43 125 19 58 40 119 47 135 28 68 81 272 99 385 6 41 20 87 30 101 l19 27 -57
55 c-31 30 -84 79 -117 110 -48 45 -57 58 -47 69 10 12 7 20 -11 41 -28 33
-34 33 -77 -3 -19 -17 -39 -30 -45 -30 -6 0 -27 -13 -45 -30 -18 -16 -37 -30
-42 -30 -12 0 -10 34 4 48 19 19 -10 61 -67 99 -27 18 -60 40 -72 49 -19 14
-30 14 -70 5 -27 -6 -70 -12 -98 -12 -27 -1 -56 -7 -64 -13 -9 -7 -92 -13
-215 -17 -179 -5 -211 -9 -291 -33 -110 -34 -229 -80 -264 -105 -14 -10 -34
-21 -45 -25 -42 -15 -286 -175 -367 -240 -8 -7 -25 -15 -37 -18 -29 -8 -30 23
-2 77 12 22 35 72 52 110 17 39 41 93 54 121 13 28 24 54 24 58 0 5 8 20 19
34 27 38 116 201 171 312 66 131 178 322 236 400 27 36 76 106 110 156 34 51
73 107 86 125 20 27 24 42 21 71 -5 35 -9 39 -47 49 -22 6 -54 15 -70 20 -35
11 -144 11 -171 0z"/>
</g>
</svg>
